<svg xmlns="http://www.w3.org/2000/svg" viewBox="0 0 500 500"><g id="freepik--background-simple--inject-177"><path d="M272.94,362.82A305,305,0,0,0,358.17,225c4.69-16.1,8.05-32.82,7-49.55s-7-33.58-18.7-45.55c-12.35-12.59-30.59-18.8-48.19-17.52s-34.36,9.74-46.72,22.32c-2.49,2.53-5.1,5.38-8.6,5.92-5,.78-9.21-3.36-13.08-6.63-17.19-14.53-43.42-15.76-63.52-5.61s-34.15,30.17-40.24,51.84-4.88,44.89-.07,66.88a212.22,212.22,0,0,0,35.42,79c12.77,17.62,30,31.2,48.56,42.54C240.62,387.38,272.94,362.82,272.94,362.82Z" style="fill:#EF2747"></path><g style="opacity:0.8"><path d="M272.94,362.82A305,305,0,0,0,358.17,225c4.69-16.1,8.05-32.82,7-49.55s-7-33.58-18.7-45.55c-12.35-12.59-30.59-18.8-48.19-17.52s-34.36,9.74-46.72,22.32c-2.49,2.53-5.1,5.38-8.6,5.92-5,.78-9.21-3.36-13.08-6.63-17.19-14.53-43.42-15.76-63.52-5.61s-34.15,30.17-40.24,51.84-4.88,44.89-.07,66.88a212.22,212.22,0,0,0,35.42,79c12.77,17.62,30,31.2,48.56,42.54C240.62,387.38,272.94,362.82,272.94,362.82Z" style="fill:#fff"></path></g></g><g id="freepik--Shadow--inject-177"><ellipse id="freepik--path--inject-177" cx="250" cy="415.69" rx="193.89" ry="11.32" style="fill:#f5f5f5"></ellipse></g><g id="freepik--Statue--inject-177"><rect x="188.45" y="328.03" width="7.13" height="57.18" style="fill:#263238"></rect><path d="M259.1,401.29c0,9.18-30,6.13-67.09,6.13s-67.09,3.05-67.09-6.13,30-16.61,67.09-16.61S259.1,392.11,259.1,401.29Z" style="fill:#263238"></path><path d="M263.9,314,248.82,336.8a35.75,35.75,0,0,1-29.81,16h-55.4a35.75,35.75,0,0,1-29.82-16L118.71,314A8.39,8.39,0,0,1,123,301.43c8.68-2.94,20.42-7.62,25.79-12.88,9.08-8.89,5.6-31.45,5.6-31.45h73.84s-3.48,22.56,5.59,31.45c5.38,5.26,17.11,9.94,25.79,12.88A8.39,8.39,0,0,1,263.9,314Z" style="fill:#EF2747"></path><path d="M263.9,314,248.82,336.8a35.75,35.75,0,0,1-29.81,16h-55.4a35.75,35.75,0,0,1-29.82-16L118.71,314A8.39,8.39,0,0,1,123,301.43c8.68-2.94,20.42-7.62,25.79-12.88,9.08-8.89,5.6-31.45,5.6-31.45h73.84s-3.48,22.56,5.59,31.45c5.38,5.26,17.11,9.94,25.79,12.88A8.39,8.39,0,0,1,263.9,314Z" style="fill:#fff;opacity:0.1"></path><path d="M155,262.08c2.47,5,12.53,24.31,21.08,25l9.83.8h11l9.83-.8c8.36-.68,18.15-19.13,20.9-24.64l.34-5.29H154.67Z" style="opacity:0.4"></path><path d="M263.9,314,248.82,336.8a35.75,35.75,0,0,1-29.81,16H191.53v-.07l-27.92.07a35.75,35.75,0,0,1-29.82-16L118.71,314a8.39,8.39,0,0,1-.25-8.87c8.52,13.58,33.49,39.05,75.82,39.2,40.59-1.16,61.53-25.86,69.89-39.17A8.38,8.38,0,0,1,263.9,314Z" style="opacity:0.2"></path><path d="M247.2,157.26v52.91a52.4,52.4,0,0,1-1.54,10.71,257.2,257.2,0,0,1-8.47,27.62,15.12,15.12,0,0,1-3.09,5.08,118.34,118.34,0,0,1-13.07,12l-.09.07c-6,4.68-13.14,9-19,9H191.15V109.65a69.16,69.16,0,0,1,27.46,6.27l0,0,1.75.84.35.17h0C234.89,124,247.2,136.8,247.2,157.26Z" style="fill:#EF2747"></path><path d="M238.37,193v1.28s-9.15,5.46-16.15,7.67-22.24-6-22.24-6a34.34,34.34,0,0,1,5.78-5.85l.55-.38a8.28,8.28,0,0,0,1,1.61s6.63,3,12.1,2.55,11.6-4.35,11.6-4.35a3.82,3.82,0,0,0,.7-1A39.13,39.13,0,0,1,238.37,193Z" style="opacity:0.2"></path><path d="M206.31,189.71a8,8,0,0,0,1,1.61s6.62,3,12.09,2.55,11.6-4.35,11.6-4.35a3.82,3.82,0,0,0,.7-1C221,182.9,212.11,185.88,206.31,189.71Z" style="fill:#EF2747"></path><path d="M206.31,189.71a8,8,0,0,0,1,1.61s6.62,3,12.09,2.55,11.6-4.35,11.6-4.35a3.82,3.82,0,0,0,.7-1C221,182.9,212.11,185.88,206.31,189.71Z" style="opacity:0.1"></path><path d="M231.72,188.52c-10.75-5.62-19.62-2.64-25.41,1.19-.71-1.48-1.18-3.7,1-5.42,3.63-2.83,18.48-6.25,23.7,0A3.63,3.63,0,0,1,231.72,188.52Z" style="fill:#EF2747"></path><path d="M231.72,188.52c-10.75-5.62-19.62-2.64-25.41,1.19-.71-1.48-1.18-3.7,1-5.42,3.63-2.83,18.48-6.25,23.7,0A3.63,3.63,0,0,1,231.72,188.52Z" style="opacity:0.2"></path><path d="M205.72,225a6.82,6.82,0,0,1-4,5.46c-1.43.42-1.25-2.58-4-1.68-4.15,1.37-3.77,3.2-3.77,3.2l-2.79.79v-9.24c7.34.21,9.12-5.24,8.84-5.24-.13,0-1.83-23-2.28-33.49h0L200,195.94l2.62,13.49C203.06,212.53,205.78,224,205.72,225Z" style="opacity:0.2"></path><path d="M191.14,223.41V185.16l6.48-.32s2.23,33.33,2.36,33.33C200.26,218.17,198.48,223.63,191.14,223.41Z" style="fill:#fff;opacity:0.1"></path><path d="M247.2,157.26V193h-8.83v-8.05s-7-7.24-14.93-7.55c-.9,0-1.83-.07-2.77-.09l.06-60.32C234.89,124,247.2,136.8,247.2,157.26Z" style="opacity:0.2"></path><path d="M238.37,184.92V193a39.13,39.13,0,0,0-6.65-4.45,3.63,3.63,0,0,0-.7-4.23c-5.22-6.25-20.07-2.83-23.7,0-2.19,1.72-1.72,3.94-1,5.42l-.55.38a34.34,34.34,0,0,0-5.78,5.85l-2.28-11.18c6.75-7,15.54-7.65,23-7.48.94,0,1.87.05,2.77.09C231.36,177.68,238.37,184.92,238.37,184.92Z" style="opacity:0.30000000000000004"></path><path d="M247.2,208.75l-1.54,12.13a259.52,259.52,0,0,1-8.47,27.62,15.12,15.12,0,0,1-3.09,5.08,118.34,118.34,0,0,1-13.07,12l-.09.07-.21.15c.59-.45,11.38-42.28,11.38-42.28Z" style="opacity:0.2"></path><path d="M192.66,242.39l-1.51.83V232.73l2.78-.79,1.27,3.9A5.53,5.53,0,0,1,192.66,242.39Z" style="fill:#fff;opacity:0.1"></path><path d="M220.67,177.28l.07,0V117l-.35-.17-1.75-.84,0,0a69.16,69.16,0,0,0-27.46-6.27v67.72h24.21C217.17,177.25,219,177.24,220.67,177.28Z" style="fill:#fff;opacity:0.1"></path><path d="M191.14,177.37v7.87l6.56-.48c5.2-5.38,11.6-7,17.66-7.39Z" style="opacity:0.1"></path><path d="M191.14,274.59V259.28c12.77,0,13.18,11.33,13,15.13Z" style="fill:#fff;opacity:0.1"></path><path d="M214.68,232.73l-9,41.34h0c4.89-1.26,10.26-4.63,15-8.29.59-.45,11.38-42.28,11.38-42.28l.25-.24-17.68,9.47Z" style="opacity:0.1"></path><path d="M201,230.35l-7.11,1.59s-.38-1.83,3.77-3.2l.26-.07h0c.47,0,.87,0,1.15,0h0C200.14,228.92,200.45,230,201,230.35Z" style="opacity:0.30000000000000004"></path><path d="M220.73,117l-.06,60.32c.94,0,1.87.05,2.77.09,6.05.23,12.66,5.54,14.93,7.55l-7.57-61.59A57.12,57.12,0,0,0,220.73,117Z" style="fill:#EF2747"></path><path d="M220.73,117l-.06,60.32c.94,0,1.87.05,2.77.09,6.05.23,12.66,5.54,14.93,7.55l-7.57-61.59A57.12,57.12,0,0,0,220.73,117Z" style="fill:#EF2747"></path><path d="M220.73,117l-.06,60.32c.94,0,1.87.05,2.77.09,6.05.23,12.66,5.54,14.93,7.55l-7.57-61.59A57.12,57.12,0,0,0,220.73,117Z" style="opacity:0.1"></path><path d="M209.2,177.26h0a17.37,17.37,0,0,0,10.33-13.43l1.14-7.35v20.8Z" style="fill:#EF2747"></path><path d="M209.2,177.26h0a17.37,17.37,0,0,0,10.33-13.43l1.14-7.35v20.8Z" style="opacity:0.1"></path><path d="M204.79,220h0a48.23,48.23,0,0,1,.93,4.92,5.2,5.2,0,0,1-.14.88l9.1,6.89,17.68-9.47C220.89,228.16,204.79,220,204.79,220Z" style="fill:#EF2747"></path><path d="M204.79,220h0a48.23,48.23,0,0,1,.93,4.92,5.2,5.2,0,0,1-.14.88l9.1,6.89,17.68-9.47C220.89,228.16,204.79,220,204.79,220Z" style="opacity:0.1"></path><g style="opacity:0.1"><path d="M241.09,195.94a27.49,27.49,0,0,0-2.72-1.85v.16s-9.15,5.46-16.15,7.67-22.24-6-22.24-6l2.63,13.49c.27,1.87,1.37,6.79,2.18,10.61h0s16.1,8.12,27.57,3.22C240.69,209.59,245,198.94,241.09,195.94Z" style="opacity:0.1"></path></g><path d="M238.37,193v1.12a27.49,27.49,0,0,1,2.72,1.85c3.86,3-.4,13.65-8.73,27.32l14.84-14.51V193Z" style="opacity:0.1"></path><path d="M135.18,157.26v52.91a52.4,52.4,0,0,0,1.54,10.71,259.52,259.52,0,0,0,8.47,27.62,15.28,15.28,0,0,0,3.09,5.08,118.34,118.34,0,0,0,13.07,12l.09.07c6,4.68,13.15,9,19,9h10.82V109.65a69.17,69.17,0,0,0-27.47,6.27l0,0-1.74.84-.35.17h0C147.49,124,135.18,136.8,135.18,157.26Z" style="fill:#EF2747"></path><path d="M144,193v1.28s9.15,5.46,16.15,7.67,22.24-6,22.24-6a34.34,34.34,0,0,0-5.78-5.85l-.55-.38a8.28,8.28,0,0,1-1,1.61s-6.63,3-12.1,2.55-11.6-4.35-11.6-4.35a3.82,3.82,0,0,1-.7-1A39.53,39.53,0,0,0,144,193Z" style="opacity:0.2"></path><path d="M176.07,189.71a8.28,8.28,0,0,1-1,1.61s-6.63,3-12.1,2.55-11.6-4.35-11.6-4.35a3.82,3.82,0,0,1-.7-1C161.42,182.9,170.28,185.88,176.07,189.71Z" style="fill:#EF2747"></path><path d="M176.07,189.71a8.28,8.28,0,0,1-1,1.61s-6.63,3-12.1,2.55-11.6-4.35-11.6-4.35a3.82,3.82,0,0,1-.7-1C161.42,182.9,170.28,185.88,176.07,189.71Z" style="opacity:0.1"></path><path d="M150.66,188.52c10.76-5.62,19.62-2.64,25.41,1.19.71-1.48,1.18-3.7-1-5.42-3.63-2.83-18.48-6.25-23.7,0A3.67,3.67,0,0,0,150.66,188.52Z" style="fill:#EF2747"></path><path d="M150.66,188.52c10.76-5.62,19.62-2.64,25.41,1.19.71-1.48,1.18-3.7-1-5.42-3.63-2.83-18.48-6.25-23.7,0A3.67,3.67,0,0,0,150.66,188.52Z" style="opacity:0.2"></path><path d="M176.66,225a6.82,6.82,0,0,0,4,5.46c1.43.42,1.25-2.58,4-1.68,4.15,1.37,3.77,3.2,3.77,3.2l2.79.79v-9.24c-7.34.21-9.12-5.24-8.84-5.24.13,0,1.83-23,2.28-33.49h0l-2.28,11.18-2.62,13.49C179.32,212.53,176.6,224,176.66,225Z" style="opacity:0.2"></path><path d="M191.24,223.41V185.16l-6.48-.32s-2.23,33.33-2.36,33.33C182.12,218.17,183.9,223.63,191.24,223.41Z" style="fill:#fff;opacity:0.1"></path><path d="M135.18,157.26V193H144v-8.05s7-7.24,14.94-7.55c.89,0,1.82-.07,2.77-.09L161.65,117C147.49,124,135.18,136.8,135.18,157.26Z" style="opacity:0.2"></path><path d="M144,184.92V193a39.53,39.53,0,0,1,6.65-4.45,3.67,3.67,0,0,1,.7-4.23c5.22-6.25,20.07-2.83,23.7,0,2.19,1.72,1.72,3.94,1,5.42l.55.38a34.34,34.34,0,0,1,5.78,5.85l2.28-11.18c-6.75-7-15.54-7.65-23-7.48-.95,0-1.88.05-2.77.09C151,177.68,144,184.92,144,184.92Z" style="opacity:0.30000000000000004"></path><path d="M135.18,208.75l1.54,12.13a259.52,259.52,0,0,0,8.47,27.62,15.28,15.28,0,0,0,3.09,5.08,118.34,118.34,0,0,0,13.07,12l.09.07.21.15c-.58-.45-11.38-42.28-11.38-42.28Z" style="opacity:0.2"></path><path d="M189.72,242.39l1.52.83V232.73l-2.79-.79-1.27,3.9A5.55,5.55,0,0,0,189.72,242.39Z" style="fill:#fff;opacity:0.1"></path><path d="M161.71,177.28l-.06,0V117l.35-.17,1.74-.84,0,0a69.17,69.17,0,0,1,27.47-6.27v67.72H167C165.21,177.25,163.42,177.24,161.71,177.28Z" style="fill:#fff;opacity:0.1"></path><path d="M191.24,177.37v7.87l-6.56-.48c-5.2-5.38-11.6-7-17.66-7.39Z" style="opacity:0.1"></path><path d="M178.29,274.41c-.22-3.8.18-15.13,13-15.13v15.31Z" style="fill:#fff;opacity:0.1"></path><path d="M167.7,232.73l9,41.34h0c-4.89-1.26-10.26-4.63-15-8.29-.58-.45-11.38-42.28-11.38-42.28l-.25-.24,17.68,9.47Z" style="opacity:0.1"></path><path d="M181.34,230.35l7.11,1.59s.38-1.83-3.77-3.2l-.26-.07h0c-.47,0-.88,0-1.16,0h0C182.24,228.92,181.93,230,181.34,230.35Z" style="opacity:0.30000000000000004"></path><path d="M161.65,117l.07,60.32c-.95,0-1.88.05-2.77.09-6,.23-12.67,5.54-14.94,7.55l7.57-61.59A57.12,57.12,0,0,1,161.65,117Z" style="fill:#EF2747"></path><path d="M161.65,117l.07,60.32c-.95,0-1.88.05-2.77.09-6,.23-12.67,5.54-14.94,7.55l7.57-61.59A57.12,57.12,0,0,1,161.65,117Z" style="fill:#EF2747"></path><path d="M161.65,117l.07,60.32c-.95,0-1.88.05-2.77.09-6,.23-12.67,5.54-14.94,7.55l7.57-61.59A57.12,57.12,0,0,1,161.65,117Z" style="opacity:0.1"></path><path d="M173.18,177.26h0a17.37,17.37,0,0,1-10.33-13.43l-1.13-7.35v20.8Z" style="fill:#EF2747"></path><path d="M173.18,177.26h0a17.37,17.37,0,0,1-10.33-13.43l-1.13-7.35v20.8Z" style="opacity:0.1"></path><path d="M177.59,220h0a48.23,48.23,0,0,0-.93,4.92,5.2,5.2,0,0,0,.14.88l-9.1,6.89L150,223.26C161.49,228.16,177.59,220,177.59,220Z" style="fill:#EF2747"></path><path d="M177.59,220h0a48.23,48.23,0,0,0-.93,4.92,5.2,5.2,0,0,0,.14.88l-9.1,6.89L150,223.26C161.49,228.16,177.59,220,177.59,220Z" style="opacity:0.1"></path><g style="opacity:0.1"><path d="M141.29,195.94a27.49,27.49,0,0,1,2.72-1.85v.16s9.15,5.46,16.15,7.67,22.24-6,22.24-6l-2.62,13.49c-.28,1.87-1.38,6.79-2.19,10.61h0s-16.1,8.12-27.57,3.22C141.69,209.59,137.43,198.94,141.29,195.94Z" style="opacity:0.1"></path></g><path d="M144,193v1.12a27.49,27.49,0,0,0-2.72,1.85c-3.86,3,.4,13.65,8.73,27.32l-14.84-14.51V193Z" style="opacity:0.1"></path><path d="M135.18,184.76s-10,9.85-10,10.65,4.1,24.3,4.1,24.3l9.4,8.92Z" style="fill:#EF2747"></path><path d="M135.18,184.76s-10,9.85-10,10.65,4.1,24.3,4.1,24.3l9.4,8.92Z" style="opacity:0.2"></path><path d="M247.22,184.76s10.3,9.85,10.3,10.65-4.24,24.3-4.24,24.3l-9.71,8.92Z" style="fill:#EF2747"></path><path d="M247.22,184.76s10.3,9.85,10.3,10.65-4.24,24.3-4.24,24.3l-9.71,8.92Z" style="opacity:0.2"></path><path d="M186.8,222.79l1.65,9.15,2.79.79,2.69-.79,1.8-9.28S192.23,224.52,186.8,222.79Z" style="fill:#EF2747"></path><path d="M186.8,222.79l1.65,9.15,2.79.79,2.69-.79,1.8-9.28S192.23,224.52,186.8,222.79Z" style="opacity:0.1"></path><path d="M213,241.08c-2.3,11.91-21.84,10.31-21.84,10.31l0-4.5,0,0c.72-.23,7.22-2.2,7.22-2.2l9.09-1A9,9,0,0,0,213,241.08Z" style="fill:#fff;opacity:0.1"></path><path d="M213,241.08a9,9,0,0,1-5.46,2.63l-9.09,1s-6.5,2-7.22,2.2l0,0h0v-3.67l4.33-3.05C199.18,239.24,209.76,239.7,213,241.08Z" style="opacity:0.2"></path><path d="M169.4,241.08a9,9,0,0,0,5.46,2.63l9.09,1s6.5,2,7.22,2.2l0,0h0v-3.67l-4.33-3.05C183.2,239.24,172.62,239.7,169.4,241.08Z" style="opacity:0.2"></path><path d="M169.4,241.08c2.3,11.91,21.84,10.31,21.84,10.31l0-4.5,0,0c-.72-.23-7.22-2.2-7.22-2.2l-9.09-1A9,9,0,0,1,169.4,241.08Z" style="fill:#fff;opacity:0.1"></path><path d="M251.11,158.28a17,17,0,0,0-.79-3.66,20.3,20.3,0,0,0-4.11-6.93c-.65,2.16-1.71,4.17-2.15,6.42a12.75,12.75,0,0,0-.19,3.56,25.33,25.33,0,0,0-2.4-2,47.1,47.1,0,0,0-10.38-5.52l-.49-.19a3.21,3.21,0,0,0-.07-3.33,24.84,24.84,0,0,0-8.36-9.26,38.83,38.83,0,0,0-.23,6.65,9.26,9.26,0,0,0,1.06,3.29c-4.61-1.46-9.24-2.74-13.77-4.23l-.48-.16a3.43,3.43,0,0,0-.15-3.29,49.71,49.71,0,0,0-6-9.19,28.13,28.13,0,0,0-1.67,6.36,7.52,7.52,0,0,0,.51,3.35c-.89-.39-1.76-.8-2.62-1.24a35.07,35.07,0,0,1-4.68-2.87,22.38,22.38,0,0,1-3.86-3.73l-1.11.86a23.93,23.93,0,0,0,4.13,4,36.72,36.72,0,0,0,4.22,2.63,11.11,11.11,0,0,0-5.55,1.4c-2,1.08-3.62,2.71-5.53,3.91a18.25,18.25,0,0,0,7.49,1.81,17.79,17.79,0,0,0,6.39-1c1.86-.67,2.58-2,2.31-3.14a2.81,2.81,0,0,0-.29-.7l.48.21a6.36,6.36,0,0,0,.84.7,4.83,4.83,0,0,0,3.69,1l1.46.5c3.38,1.11,6.8,2.1,10.2,3.13a8.14,8.14,0,0,0-4.76,2.81,40.09,40.09,0,0,0-3.5,5.66,25.86,25.86,0,0,0,11.67-2.91c1.69-.86,2.36-2.16,2-3.32a2.51,2.51,0,0,0-.31-.64l.5.17a7.59,7.59,0,0,0,.84.62,5.26,5.26,0,0,0,3.64,1l1.48.55a47.18,47.18,0,0,1,9.4,4.9,5.89,5.89,0,0,0-2.1.06,7.48,7.48,0,0,0-3,1.51,30.91,30.91,0,0,0-4.27,5,60.87,60.87,0,0,0,10.11-.41c1.72-.12,3-.85,3.32-2a2,2,0,0,0,0-.7c.13.12.24.26.36.39.12.32.25.65.4,1a9,9,0,0,0,.77,1.32,4.64,4.64,0,0,0,.79,1,6.21,6.21,0,0,0,.77.58c.26.46.5.93.72,1.4l1.28-.56c-.08-.17-.17-.33-.25-.49.93-.18,1.79-1,2.1-2.65A14.77,14.77,0,0,0,251.11,158.28Z" style="fill:#EF2747"></path><path d="M251.11,158.28a17,17,0,0,0-.79-3.66,20.3,20.3,0,0,0-4.11-6.93c-.65,2.16-1.71,4.17-2.15,6.42a12.75,12.75,0,0,0-.19,3.56,25.33,25.33,0,0,0-2.4-2,47.1,47.1,0,0,0-10.38-5.52l-.49-.19a3.21,3.21,0,0,0-.07-3.33,24.84,24.84,0,0,0-8.36-9.26,38.83,38.83,0,0,0-.23,6.65,9.26,9.26,0,0,0,1.06,3.29c-4.61-1.46-9.24-2.74-13.77-4.23l-.48-.16a3.43,3.43,0,0,0-.15-3.29,49.71,49.71,0,0,0-6-9.19,28.13,28.13,0,0,0-1.67,6.36,7.52,7.52,0,0,0,.51,3.35c-.89-.39-1.76-.8-2.62-1.24a35.07,35.07,0,0,1-4.68-2.87,22.38,22.38,0,0,1-3.86-3.73l-1.11.86a23.93,23.93,0,0,0,4.13,4,36.72,36.72,0,0,0,4.22,2.63,11.11,11.11,0,0,0-5.55,1.4c-2,1.08-3.62,2.71-5.53,3.91a18.25,18.25,0,0,0,7.49,1.81,17.79,17.79,0,0,0,6.39-1c1.86-.67,2.58-2,2.31-3.14a2.81,2.81,0,0,0-.29-.7l.48.21a6.36,6.36,0,0,0,.84.7,4.83,4.83,0,0,0,3.69,1l1.46.5c3.38,1.11,6.8,2.1,10.2,3.13a8.14,8.14,0,0,0-4.76,2.81,40.09,40.09,0,0,0-3.5,5.66,25.86,25.86,0,0,0,11.67-2.91c1.69-.86,2.36-2.16,2-3.32a2.51,2.51,0,0,0-.31-.64l.5.17a7.59,7.59,0,0,0,.84.62,5.26,5.26,0,0,0,3.64,1l1.48.55a47.18,47.18,0,0,1,9.4,4.9,5.89,5.89,0,0,0-2.1.06,7.48,7.48,0,0,0-3,1.51,30.91,30.91,0,0,0-4.27,5,60.87,60.87,0,0,0,10.11-.41c1.72-.12,3-.85,3.32-2a2,2,0,0,0,0-.7c.13.12.24.26.36.39.12.32.25.65.4,1a9,9,0,0,0,.77,1.32,4.64,4.64,0,0,0,.79,1,6.21,6.21,0,0,0,.77.58c.26.46.5.93.72,1.4l1.28-.56c-.08-.17-.17-.33-.25-.49.93-.18,1.79-1,2.1-2.65A14.77,14.77,0,0,0,251.11,158.28Z" style="fill:#fff;opacity:0.4"></path><path d="M189.74,132.53a22.57,22.57,0,0,1-3.91,3.78,33.61,33.61,0,0,1-4,2.47,5.13,5.13,0,0,0,.86-1.87,6.62,6.62,0,0,0-.08-3.31,24.65,24.65,0,0,0-2.86-5.86c-.87,2.32-2.5,5.52-3.81,9-.64,1.7-.39,3.12.58,3.84a2.17,2.17,0,0,0,.61.3l-.47.19a5.46,5.46,0,0,0-1,0,4.88,4.88,0,0,0-3.3,1.44c-.48.15-1,.31-1.44.45-3.25,1-6.55,1.82-9.83,2.7a8,8,0,0,0,2.42-4.85,39.57,39.57,0,0,0-.13-6.62,25.56,25.56,0,0,0-8.08,8.63c-.92,1.66-.68,3.13.23,3.88a2.3,2.3,0,0,0,.63.36l-.49.15a5.88,5.88,0,0,0-1,0,4.44,4.44,0,0,0-3.35,1.48c-.46.17-.93.32-1.38.5a43.91,43.91,0,0,0-5,2.25,28,28,0,0,0-4,2.53,8.77,8.77,0,0,0,.73-2,11.16,11.16,0,0,0,.27-3.5c-.15-2.25-.94-4.34-1.34-6.57a21,21,0,0,0-4.64,5.87,15.31,15.31,0,0,0-1.76,6.67c0,2.11,1.11,3.05,2.31,3.14a2.26,2.26,0,0,0,.73-.06l-.29.37a3.63,3.63,0,0,0-.88.63,4.44,4.44,0,0,0-1.46,2.36,2.3,2.3,0,0,0,0,1c-.2.46-.38.92-.56,1.38l1.33.44c0-.14.11-.28.17-.42a4.24,4.24,0,0,0,3.21.22c.82-.21,1.69-.33,2.42-.47s1.5-.19,2.22-.23c1.39-.11,2.7-.11,3.92-.29a27,27,0,0,0-4.91-4.28,6.51,6.51,0,0,0-3.14-.91,16.13,16.13,0,0,1,2-1.8,34.28,34.28,0,0,1,9.23-5l.45-.16a3.63,3.63,0,0,0,2.1,2.49A26.73,26.73,0,0,0,163.79,156a40.24,40.24,0,0,0-3.22-5.78A8.52,8.52,0,0,0,158,148c4.38-1.26,8.86-2.34,13.31-3.67l.48-.15a3.29,3.29,0,0,0,2.05,2.59,18.57,18.57,0,0,0,12.8,1.53c-1.58-1.62-2.83-3.44-4.57-4.91a10.86,10.86,0,0,0-3-1.78c.89-.37,1.78-.77,2.66-1.21a32.48,32.48,0,0,0,4.88-2.95,24.2,24.2,0,0,0,4.18-4Z" style="fill:#EF2747"></path><path d="M189.74,132.53a22.57,22.57,0,0,1-3.91,3.78,33.61,33.61,0,0,1-4,2.47,5.13,5.13,0,0,0,.86-1.87,6.62,6.62,0,0,0-.08-3.31,24.65,24.65,0,0,0-2.86-5.86c-.87,2.32-2.5,5.52-3.81,9-.64,1.7-.39,3.12.58,3.84a2.17,2.17,0,0,0,.61.3l-.47.19a5.46,5.46,0,0,0-1,0,4.88,4.88,0,0,0-3.3,1.44c-.48.15-1,.31-1.44.45-3.25,1-6.55,1.82-9.83,2.7a8,8,0,0,0,2.42-4.85,39.57,39.57,0,0,0-.13-6.62,25.56,25.56,0,0,0-8.08,8.63c-.92,1.66-.68,3.13.23,3.88a2.3,2.3,0,0,0,.63.36l-.49.15a5.88,5.88,0,0,0-1,0,4.44,4.44,0,0,0-3.35,1.48c-.46.17-.93.32-1.38.5a43.91,43.91,0,0,0-5,2.25,28,28,0,0,0-4,2.53,8.77,8.77,0,0,0,.73-2,11.16,11.16,0,0,0,.27-3.5c-.15-2.25-.94-4.34-1.34-6.57a21,21,0,0,0-4.64,5.87,15.31,15.31,0,0,0-1.76,6.67c0,2.11,1.11,3.05,2.31,3.14a2.26,2.26,0,0,0,.73-.06l-.29.37a3.63,3.63,0,0,0-.88.63,4.44,4.44,0,0,0-1.46,2.36,2.3,2.3,0,0,0,0,1c-.2.46-.38.92-.56,1.38l1.33.44c0-.14.11-.28.17-.42a4.24,4.24,0,0,0,3.21.22c.82-.21,1.69-.33,2.42-.47s1.5-.19,2.22-.23c1.39-.11,2.7-.11,3.92-.29a27,27,0,0,0-4.91-4.28,6.51,6.51,0,0,0-3.14-.91,16.13,16.13,0,0,1,2-1.8,34.28,34.28,0,0,1,9.23-5l.45-.16a3.63,3.63,0,0,0,2.1,2.49A26.73,26.73,0,0,0,163.79,156a40.24,40.24,0,0,0-3.22-5.78A8.52,8.52,0,0,0,158,148c4.38-1.26,8.86-2.34,13.31-3.67l.48-.15a3.29,3.29,0,0,0,2.05,2.59,18.57,18.57,0,0,0,12.8,1.53c-1.58-1.62-2.83-3.44-4.57-4.91a10.86,10.86,0,0,0-3-1.78c.89-.37,1.78-.77,2.66-1.21a32.48,32.48,0,0,0,4.88-2.95,24.2,24.2,0,0,0,4.18-4Z" style="fill:#fff;opacity:0.4"></path></g><g id="freepik--Character--inject-177"><path d="M411.48,390.17c2.79,1.5,8,.71,9-2.31-6.75-14.16-13.3-33.4-19.87-50.69-1.92-5.08-4.06-10.27-7.94-14.07a16.3,16.3,0,0,0-1.71-1.47c-7.4-5.57-15.37,0-11.55,11C387.92,357.14,411.48,390.17,411.48,390.17Z" style="fill:#ffb573"></path><path d="M288.46,177.76c-16.15,2.25-26.64-3.12-28.52-2.43-2.86,1.06-3.62,4.66-3.94,7.69,9.48,3.67,27.08,6.51,37.18,5.3,7.64-.91,25.83-13.67,30.65-18.42,2.37-2.34,4.46-5.14,5.12-8.4s-1.81-7-4.63-8.81c-6.38-4-10.15,3.92-13,7.82C306.9,166.56,295.88,176.73,288.46,177.76Z" style="fill:#ffb573"></path><path d="M261.47,175.82s-9.81-6.32-10-5.68S248,181,248.68,181.2s9.94,2.74,9.94,2.74S263.46,181.76,261.47,175.82Z" style="fill:#ffb573"></path><polygon points="248.68 181.2 251.47 170.14 241.19 172.73 241.43 179.97 248.68 181.2" style="fill:#ffb573"></polygon><path d="M301.83,396c3.2,3.53,7.66,3.78,11.23,0,10.84-27.12,20-57.28,19.95-74-.05-10.42-12.71-20.37-16.86,1.62C313.8,336,304.41,385.78,301.83,396Z" style="fill:#ffb573"></path><path d="M317.16,319.64c.32,3.74,6.92,7.93,11.9,5.57,15.78-7.49,39-57.43,46.9-70.89,2.21-3.77,4.48-7.81,4.3-12.17-.22-5.49-4.3-10.09-8.8-13.25a41.42,41.42,0,0,0-19-7.17c-8.13-.93-8.56-12.81-10.53,8.65C340.42,246.77,316.15,307.64,317.16,319.64Z" style="fill:#EF2747"></path><path d="M373.94,273.08c2,2.44,7.78,0,10.3-.77s3.16-4.31,3.48-7.34c.84-7.94,1.64-16.3-1-24.24-2.46-7.32-7.89-13.61-14.17-16.4a18.12,18.12,0,0,0-14-.48c-5.16,2-8.33,1.84-5.94,7.68C359.17,247.72,365.61,263,373.94,273.08Z" style="opacity:0.2"></path><path d="M370.07,247.55c2-13.52,17.37-22.46,29.89-27.91-2.78-11.56-15.93-21.07-23.48-23.76-2.77-1-5.71-2-8.59-1.44a16.63,16.63,0,0,0-5.63,2.66l-9.63,6.12c-2.5,1.59-7.88,2.85-8.75,5.7C337.32,230.35,361.52,241.49,370.07,247.55Z" style="fill:#EF2747"></path><path d="M319.5,186.82c2,3.58,5,6.48,8,9.33l12.1,11.62c2.3,2.22,4.74,4.5,7.8,5.38,4.4,1.25,11.78,1.43,15.95-.44,5.12-2.3,15.35-10.65,11.64-16.41-10.66-16.54-7.88-43-23.21-47.23-20-5.56-32.54-.75-35.59,6.16C312.45,163.62,315,178.68,319.5,186.82Z" style="fill:#263238"></path><path d="M316.32,163.27a12.54,12.54,0,0,1,13.16,6.12,29.74,29.74,0,0,1,17.6-15.45c-2.55-2.78-5.2-5.62-8.63-7.21C327.54,141.69,318.54,154.09,316.32,163.27Z" style="fill:#fff"></path><path d="M329.86,131.1c1,5.78,3.84,16,9,18.13,0,0-3.11,5.87-10.64,13.55-3.36-1.11-5-2.54-5.68-3.83a3.28,3.28,0,0,1,.72-4c4.05-3.6,2.26-7.59-.17-11.08Z" style="fill:#ffb573"></path><path d="M327.09,136.35l-4,7.54a18.48,18.48,0,0,1,1.68,2.76c2.15-1.23,4.8-4.63,4.1-7.12A10.49,10.49,0,0,0,327.09,136.35Z" style="opacity:0.2;isolation:isolate"></path><path d="M306.28,109.3c-3.2,1.27-6.39,2.61-7.39,4.22-5.53,8.93,1,25,4.45,34.32,7.63-6.05,2-11,2.92-19.88a39.69,39.69,0,0,0,0-6.64c-.09-1.47,5.63-4.82,7-5.31C311.75,113.35,306.19,112.34,306.28,109.3Z" style="fill:#263238"></path><path d="M332.22,120.93c.3,9.64.63,13.72-3.75,19.08-6.59,8.08-15.52,7.83-21.67-3-2.86-8.42-2.88-22.76,6.14-27.45a13.16,13.16,0,0,1,19.28,11.38Z" style="fill:#ffb573"></path><path d="M330.29,136.19s.44-2.54-.23-3.68c-.32-.56,1.71-5.1,2.14-5.58a1.74,1.74,0,0,1,1.18-.49c.4.06.56.53.65.93.3,1.38-.52,8-2.23,8.73C330.57,136.61,333.12,140.85,330.29,136.19Z" style="fill:#263238"></path><path d="M335.19,128.3a7,7,0,0,1-3,4.47c-2.07,1.35-3.84-.31-3.89-2.66-.05-2.1,1-5.34,3.35-5.76a3.19,3.19,0,0,1,3.61,2.71A3.25,3.25,0,0,1,335.19,128.3Z" style="fill:#ffb573"></path><path d="M369.48,263.09c-.12,31.15,4.95,63.47,9.14,67.4,4.81,4.52,14.74-1.07,16.53-6.57,2.56-7.84,27.68-128.51-14.88-113C370,214.61,369.52,251.43,369.48,263.09Z" style="fill:#EF2747"></path><rect x="267.28" y="170.01" width="19.25" height="11.06" rx="2.66" transform="matrix(0.99, -0.12, 0.12, 0.99, -19.43, 35.26)" style="fill:#263238"></rect><path d="M276.1,169.1c.82-.1,1.52.06,1.56.36l4.67,37.4-3.07.38-4.58-37.41c0-.3.61-.63,1.42-.73Z" style="fill:#263238"></path><path d="M354.44,155.16c-7.36-1.22-11.68,17.5-21.57,41.77-.79,1.93-2.3,3.44-4.33,3l-36.36-7.3s0,6.33-1.58,9.17c0,0,21.14,7.69,36.37,11.64,9.79,2.54,15.65-3.06,18.54-9.81C359.06,171.93,370.92,157.89,354.44,155.16Z" style="fill:#ffb573"></path><path d="M292.18,192.6s-9.59-6.64-9.8-6-3.79,10.75-3.16,11,11.38,4.21,11.38,4.21S294,198.61,292.18,192.6Z" style="fill:#ffb573"></path><polygon points="279.22 197.56 282.38 186.59 272.02 188.83 272.02 196.08 279.22 197.56" style="fill:#ffb573"></polygon><path d="M331.23,101.41c7.68,0,12.88,17.61,1.21,18.4-2.37.16-7.84-2.9-9-5C321.66,111.72,318.42,101.38,331.23,101.41Z" style="fill:#263238"></path><path d="M330.63,108.29a6,6,0,0,1,3.53,4.19c.27,1.21,0,2.7-1.06,3.29a2.53,2.53,0,0,1-2.3-.08,6.71,6.71,0,0,1-1.85-1.51c-.9-1-4.22-3.81-3.71-5.19C325.84,107.36,329.47,107.82,330.63,108.29Z" style="fill:#EF2747"></path><path d="M319.31,111c-1,.55-7.35,4.86-7.21,6,0,.5,6.68-2.69,10-.53,5.1,3.29,5.24,14.89,5.24,14.89.25-2.43.62-4,1.8-5.31s3.57-1.41,5.2-.83a22.4,22.4,0,0,0-.71-9.25C331.71,109.85,324.67,108.16,319.31,111Z" style="fill:#263238"></path><path d="M313,117c3.12-.56,13.75-5.54,14.08-6.06,1.36-2.21-4-4.61-9.9-4.58-1.89,0-9.8,1.67-15.77,5.26,9.32.5,8.75,6.09,11.2,5.45A2.26,2.26,0,0,1,313,117Z" style="fill:#263238"></path><path d="M296.67,396.11c-1.44-.18-2.81-.56-3.14-1.26a1,1,0,0,1,.17-1.16,1.31,1.31,0,0,1,.93-.5c1.93-.27,5.54,2.48,5.7,2.6a.31.31,0,0,1,.1.3.3.3,0,0,1-.25.19A18.73,18.73,0,0,1,296.67,396.11Zm-1.47-2.42a3.13,3.13,0,0,0-.53,0,.82.82,0,0,0-.56.3c-.23.31-.19.48-.14.59.43.79,3.27,1.18,5.37,1.17a12,12,0,0,0-4.15-2Z" style="fill:#EF2747"></path><path d="M300.1,396.26l-.11,0c-1.27-.79-3.63-3.56-3.24-4.79a1,1,0,0,1,1.09-.63,2,2,0,0,1,1.43.58c1.27,1.37,1.16,4.42,1.17,4.54a.28.28,0,0,1-.1.26Zm-2.12-4.9-.16-.07c-.47,0-.52.17-.55.24-.28.71,1.35,2.88,2.62,3.9a6.24,6.24,0,0,0-1-3.64A1.33,1.33,0,0,0,298,391.36Z" style="fill:#EF2747"></path><path d="M302.19,394.44l10.9.87a1,1,0,0,1,.88.86l1.41,9.2c.08.93-1.75,1.84-1.85,1.83-6.72.11-21.07-.74-25.8-1.22s-4.86-5.21-2.89-5.44c8.85-1,12.39-3.31,15.39-5.52A2.73,2.73,0,0,1,302.19,394.44Z" style="fill:#263238"></path><path d="M408.52,395.57c-1.31.86-2.7,1.49-3.47,1.14a1.07,1.07,0,0,1-.66-1.06,1.44,1.44,0,0,1,.42-1.06c1.41-1.56,6.28-1.81,6.49-1.82a.32.32,0,0,1,.29.17.31.31,0,0,1-.07.33A20.23,20.23,0,0,1,408.52,395.57Zm-2.89-1a2.51,2.51,0,0,0-.44.35.85.85,0,0,0-.25.64c0,.42.17.52.28.58.91.35,3.51-1.3,5.23-2.77a13,13,0,0,0-4.82,1.21Z" style="fill:#EF2747"></path><path d="M411.44,393.32l-.12,0c-1.59.24-5.45-.41-6-1.69a1.05,1.05,0,0,1,.46-1.27,2.11,2.11,0,0,1,1.58-.52c2,.24,4,2.82,4.11,2.92a.27.27,0,0,1,.09.28Zm-5.15-2.56-.17.05c-.39.32-.31.51-.29.58.26.78,3.1,1.43,4.86,1.39a6.72,6.72,0,0,0-3.37-2.29A1.47,1.47,0,0,0,406.29,390.76Z" style="fill:#EF2747"></path><path d="M411.58,389.59l7.44-4.33c1.89,0,8.14,7.56,8.14,7.56.71.71-.16,2.72-.25,2.79-5.44,4.75-14.67,11.39-18.88,14.28s-7.62-.9-6.16-2.46c6.57-7,7.88-11.33,8.82-15.23C410.84,391.46,411,390,411.58,389.59Z" style="fill:#263238"></path><rect x="246.7" y="160.94" width="3.21" height="33.21" transform="translate(358.66 -107.06) rotate(75.63)" style="fill:#263238"></rect><polygon points="234.74 179.36 228.69 179.14 230.28 185.61 235.54 182.47 234.74 179.36" style="fill:#263238"></polygon><polygon points="226.57 179.06 228.52 186.66 230.28 185.61 228.69 179.14 226.57 179.06" style="fill:#EF2747"></polygon><polygon points="226.57 179.06 228.52 186.66 230.28 185.61 228.69 179.14 226.57 179.06" style="fill:#fff;opacity:0.7000000000000001"></polygon><path d="M256.3,177.35l-4.52-2.47-5.14,1.32.47,1.15a1.67,1.67,0,0,0,1.23.71c1.81.34,6.21,1.51,6.21,1.51Z" style="fill:#ffb573"></path><polygon points="226.57 179.06 223.81 179.06 228.52 186.66 226.57 179.06" style="opacity:0.30000000000000004"></polygon><path d="M317.16,319.64l-1.78,8,16.46,6.86s1.26-7.18,1-8.61S317.16,319.64,317.16,319.64Z" style="opacity:0.2"></path><path d="M314.8,314.8c-.1,0-1.35,8.7-1.35,8.7l21.73,5.58,2.14-7.74Z" style="fill:#263238"></path><path d="M378.62,330.49l3.15,8.4,17.81-4.38s-2.06-5.36-4.05-7.67C394.58,325.74,378.62,330.49,378.62,330.49Z" style="opacity:0.2"></path><path d="M374.44,327.34c-.1,0,3.22,8.2,3.22,8.2l21.58-6.14-2.05-7.77Z" style="fill:#263238"></path><path d="M316.27,137.62a7,7,0,0,1-1.09.38.21.21,0,0,1-.28-.13h0a.24.24,0,0,1,.18-.27,6.59,6.59,0,0,0,4.34-3.57.24.24,0,0,1,.29-.14.2.2,0,0,1,.14.27A6.72,6.72,0,0,1,316.27,137.62Z" style="fill:#263238"></path><path d="M317.49,126.34c.17.75-.1,1.46-.6,1.58s-1-.41-1.21-1.18.09-1.47.59-1.58S317.31,125.57,317.49,126.34Z" style="fill:#263238"></path><path d="M308.84,128.29c.18.76-.09,1.47-.58,1.59s-1-.41-1.22-1.18.09-1.47.59-1.59S308.68,127.52,308.84,128.29Z" style="fill:#263238"></path><path d="M307.85,127.1l-2-.11S307.17,128.21,307.85,127.1Z" style="fill:#263238"></path><path d="M311.91,129.48a21.22,21.22,0,0,1-1.06,5.64,3.36,3.36,0,0,0,2.81-.38Z" style="fill:#ed893e"></path><path d="M318.12,122.84a.48.48,0,0,0,.16-.12.39.39,0,0,0-.09-.54h0a4.46,4.46,0,0,0-4.07-.65.4.4,0,0,0-.21.5.38.38,0,0,0,.49.21,3.74,3.74,0,0,1,3.36.57A.35.35,0,0,0,318.12,122.84Z" style="fill:#263238"></path><path d="M304.88,125.29a.47.47,0,0,0,.15-.13,3.74,3.74,0,0,1,3-1.57.39.39,0,0,0,.41-.35h0a.4.4,0,0,0-.37-.41,4.53,4.53,0,0,0-3.67,1.88.39.39,0,0,0,.47.59Z" style="fill:#263238"></path><path d="M316.5,125.15l-2-.11S315.81,126.25,316.5,125.15Z" style="fill:#263238"></path><rect x="265.64" y="137.39" width="3.3" height="1" transform="translate(103.19 389.94) rotate(-84.22)" style="fill:#EF2747"></rect><rect x="256.74" y="152.56" width="18.04" height="1" transform="translate(86.72 402.06) rotate(-84.22)" style="fill:#EF2747"></rect><rect x="265.08" y="154.66" width="15.25" height="1" transform="translate(-0.15 310.05) rotate(-59.22)" style="fill:#EF2747"></rect><rect x="270.24" y="159.69" width="12.04" height="1" transform="translate(-41.36 193.37) rotate(-36.07)" style="fill:#EF2747"></rect></g></svg>